<svg version="1.1" preserveAspectRatio="none" xmlns="http://www.w3.org/2000/svg" width="500" height="500" viewBox="0 0 500 500"><rect width="100%" height="100%" fill="#FFFFFF" fill-opacity="1"/><svg viewBox="26.127 137.4999 364.4128 99.9999" width="417" height="114.43055320779072" x="41.5px" y="192.7847px" xmlns="http://www.w3.org/2000/svg" xmlns:xlink="http://www.w3.org/1999/xlink" preserveAspectRatio="none"><defs></defs><style>.companyName {fill:#282828;fill-opacity:1;}.icon2 {fill:#E56642;fill-opacity:1;}.icon3 {fill:#FD8D6E;fill-opacity:1;}.icon3-str {stroke:#FD8D6E;stroke-opacity:1;}.shapeStroke-str {stroke:#282828;stroke-opacity:1;}</style><g opacity="1" transform="rotate(0 193.3334 137.4999)">
<svg width="30" height="29.9999" x="193.3334" y="137.4999" version="1.1" preserveAspectRatio="none" viewBox="20 20 807 807">
  <g transform="matrix(1 0 0 1 0 0)" class="icon3"><defs></defs><g><polygon class="fil0" points="423,304 707,20 827,140 543,423 827,707 707,827 423,543 140,827 20,707 304,423 20,140 140,20 "></polygon></g></g>
</svg>
</g><g opacity="1" transform="rotate(0 26.127 149.4999)">
<svg width="157.2064" height="6" x="26.127" y="149.4999" version="1.1" preserveAspectRatio="none" viewBox="0 0 157.2064 6">
  <defs><rect x="0" y="0" width="157.2064" height="6" rx="0px" ry="0px" id="id-sr1BtIxl1694252338438"></rect></defs><use class="icon3 shapeStroke-str" style="stroke-width:0;" xlink:href="#id-sr1BtIxl1694252338438"></use>
</svg>
</g><g opacity="1" transform="rotate(0 233.3334 149.4999)">
<svg width="157.2064" height="6" x="233.3334" y="149.4999" version="1.1" preserveAspectRatio="none" viewBox="0 0 157.2064 6">
  <defs><rect x="0" y="0" width="157.2064" height="6" rx="0px" ry="0px" id="id-R9TavoXY1694252338438"></rect></defs><use class="icon3 shapeStroke-str" style="stroke-width:0;" xlink:href="#id-R9TavoXY1694252338438"></use>
</svg>
</g><g opacity="1" transform="rotate(0 26.127 187.4998)">
<svg width="364.4127" height="50" x="26.127" y="187.4998" version="1.1" preserveAspectRatio="none" viewBox="2.16 -28.32 208.8 28.64">
  <g transform="matrix(1 0 0 1 0 0)" class="companyName"><path id="id-D6z1nYkh12" d="M2.64 0Q2.44 0 2.30-0.14Q2.16-0.28 2.16-0.48L2.16-0.48L2.16-27.52Q2.16-27.72 2.30-27.86Q2.44-28 2.64-28L2.64-28L6.32-28Q6.52-28 6.66-27.86Q6.80-27.72 6.80-27.52L6.80-27.52L6.80-4.20Q6.80-4 7-4L7-4L15.64-4Q15.84-4 15.98-3.86Q16.12-3.72 16.12-3.52L16.12-3.52L16.12-0.48Q16.12-0.28 15.98-0.14Q15.84 0 15.64 0L15.64 0L2.64 0Z M27 0.32Q23.56 0.32 21.46-1.76Q19.36-3.84 19.36-7.28L19.36-7.28L19.36-20.72Q19.36-24.16 21.46-26.24Q23.56-28.32 27-28.32L27-28.32Q30.44-28.32 32.56-26.24Q34.68-24.16 34.68-20.72L34.68-20.72L34.68-7.28Q34.68-3.84 32.56-1.76Q30.44 0.32 27 0.32L27 0.32ZM27-3.68Q28.36-3.68 29.20-4.62Q30.04-5.56 30.04-7.08L30.04-7.08L30.04-20.92Q30.04-22.44 29.20-23.38Q28.36-24.32 27-24.32L27-24.32Q25.64-24.32 24.82-23.38Q24-22.44 24-20.92L24-20.92L24-7.08Q24-5.56 24.82-4.62Q25.64-3.68 27-3.68L27-3.68Z M46.76 0.32Q43.36 0.32 41.30-1.66Q39.24-3.64 39.24-6.92L39.24-6.92L39.24-21.08Q39.24-24.36 41.30-26.34Q43.36-28.32 46.76-28.32L46.76-28.32Q50.16-28.32 52.26-26.34Q54.36-24.36 54.36-21.04L54.36-21.04L54.36-19.48Q54.36-19.28 54.22-19.14Q54.08-19 53.88-19L53.88-19L50.20-19Q50-19 49.86-19.14Q49.72-19.28 49.72-19.48L49.72-19.48L49.72-21.12Q49.72-22.56 48.90-23.44Q48.08-24.32 46.76-24.32L46.76-24.32Q45.44-24.32 44.64-23.44Q43.84-22.56 43.84-21.12L43.84-21.12L43.84-6.88Q43.84-5.44 44.64-4.56Q45.44-3.68 46.76-3.68L46.76-3.68Q48.08-3.68 48.90-4.56Q49.72-5.44 49.72-6.88L49.72-6.88L49.72-10.72Q49.72-10.92 49.52-10.92L49.52-10.92L47.08-10.92Q46.88-10.92 46.74-11.06Q46.60-11.20 46.60-11.40L46.60-11.40L46.60-14.32Q46.60-14.52 46.74-14.66Q46.88-14.80 47.08-14.80L47.08-14.80L53.88-14.80Q54.08-14.80 54.22-14.66Q54.36-14.52 54.36-14.32L54.36-14.32L54.36-6.92Q54.36-3.64 52.26-1.66Q50.16 0.32 46.76 0.32L46.76 0.32Z M66.36 0.32Q62.92 0.32 60.82-1.76Q58.72-3.84 58.72-7.28L58.72-7.28L58.72-20.72Q58.72-24.16 60.82-26.24Q62.92-28.32 66.36-28.32L66.36-28.32Q69.80-28.32 71.92-26.24Q74.04-24.16 74.04-20.72L74.04-20.72L74.04-7.28Q74.04-3.84 71.92-1.76Q69.80 0.32 66.36 0.32L66.36 0.32ZM66.36-3.68Q67.72-3.68 68.56-4.62Q69.40-5.56 69.40-7.08L69.40-7.08L69.40-20.92Q69.40-22.44 68.56-23.38Q67.72-24.32 66.36-24.32L66.36-24.32Q65-24.32 64.18-23.38Q63.36-22.44 63.36-20.92L63.36-20.92L63.36-7.08Q63.36-5.56 64.18-4.62Q65-3.68 66.36-3.68L66.36-3.68Z M88.76 0Q88.56 0 88.42-0.14Q88.28-0.28 88.28-0.48L88.28-0.48L88.28-27.52Q88.28-27.72 88.42-27.86Q88.56-28 88.76-28L88.76-28L95.60-28Q99.04-28 101.10-25.92Q103.16-23.84 103.16-20.36L103.16-20.36L103.16-7.64Q103.16-4.16 101.10-2.08Q99.04 0 95.60 0L95.60 0L88.76 0ZM92.92-4.20Q92.92-4 93.12-4L93.12-4L95.52-4.04Q96.84-4.04 97.66-5.10Q98.48-6.16 98.52-7.92L98.52-7.92L98.52-20.08Q98.52-21.88 97.70-22.94Q96.88-24 95.48-24L95.48-24L93.12-24Q92.92-24 92.92-23.80L92.92-23.80L92.92-4.20Z M122.16-24.48Q122.16-24.28 122.02-24.14Q121.88-24 121.68-24L121.68-24L113.04-24Q112.84-24 112.84-23.80L112.84-23.80L112.84-16.24Q112.84-16.04 113.04-16.04L113.04-16.04L118.16-16.04Q118.36-16.04 118.50-15.90Q118.64-15.76 118.64-15.56L118.64-15.56L118.64-12.48Q118.64-12.28 118.50-12.14Q118.36-12 118.16-12L118.16-12L113.04-12Q112.84-12 112.84-11.80L112.84-11.80L112.84-4.20Q112.84-4 113.04-4L113.04-4L121.68-4Q121.88-4 122.02-3.86Q122.16-3.72 122.16-3.52L122.16-3.52L122.16-0.48Q122.16-0.28 122.02-0.14Q121.88 0 121.68 0L121.68 0L108.68 0Q108.48 0 108.34-0.14Q108.20-0.28 108.20-0.48L108.20-0.48L108.20-27.52Q108.20-27.72 108.34-27.86Q108.48-28 108.68-28L108.68-28L121.68-28Q121.88-28 122.02-27.86Q122.16-27.72 122.16-27.52L122.16-27.52L122.16-24.48Z M133.60 0.32Q130.32 0.32 128.28-1.70Q126.24-3.72 126.24-6.92L126.24-6.92L126.24-8.04Q126.24-8.24 126.38-8.38Q126.52-8.52 126.72-8.52L126.72-8.52L130.32-8.52Q130.52-8.52 130.66-8.38Q130.80-8.24 130.80-8.04L130.80-8.04L130.80-7.16Q130.80-5.60 131.60-4.64Q132.40-3.68 133.60-3.68L133.60-3.68Q134.84-3.68 135.64-4.58Q136.44-5.48 136.44-6.96L136.44-6.96Q136.44-7.96 136-8.74Q135.56-9.52 134.78-10.20Q134-10.88 132.24-12.16L132.24-12.16Q130.24-13.60 129.02-14.72Q127.80-15.84 126.98-17.42Q126.16-19 126.16-21.08L126.16-21.08Q126.16-24.40 128.16-26.36Q130.16-28.32 133.40-28.32L133.40-28.32Q136.76-28.32 138.80-26.26Q140.84-24.20 140.84-20.80L140.84-20.80L140.84-19.84Q140.84-19.64 140.70-19.50Q140.56-19.36 140.36-19.36L140.36-19.36L136.72-19.36Q136.52-19.36 136.38-19.50Q136.24-19.64 136.24-19.84L136.24-19.84L136.24-20.88Q136.24-22.44 135.46-23.38Q134.68-24.32 133.40-24.32L133.40-24.32Q132.24-24.32 131.48-23.46Q130.72-22.60 130.72-21.08L130.72-21.08Q130.72-19.64 131.54-18.64Q132.36-17.64 134.76-15.88L134.76-15.88Q137.20-14.04 138.44-12.92Q139.68-11.80 140.36-10.44Q141.04-9.08 141.04-7.20L141.04-7.20Q141.04-3.80 138.98-1.74Q136.92 0.32 133.60 0.32L133.60 0.32Z M146.08 0Q145.88 0 145.74-0.14Q145.60-0.28 145.60-0.48L145.60-0.48L145.60-27.52Q145.60-27.72 145.74-27.86Q145.88-28 146.08-28L146.08-28L149.76-28Q149.96-28 150.10-27.86Q150.24-27.72 150.24-27.52L150.24-27.52L150.24-0.48Q150.24-0.28 150.10-0.14Q149.96 0 149.76 0L149.76 0L146.08 0Z M162.80 0.32Q159.40 0.32 157.34-1.66Q155.28-3.64 155.28-6.92L155.28-6.92L155.28-21.08Q155.28-24.36 157.34-26.34Q159.40-28.32 162.80-28.32L162.80-28.32Q166.20-28.32 168.30-26.34Q170.40-24.36 170.40-21.04L170.40-21.04L170.40-19.48Q170.40-19.28 170.26-19.14Q170.12-19 169.92-19L169.92-19L166.24-19Q166.04-19 165.90-19.14Q165.76-19.28 165.76-19.48L165.76-19.48L165.76-21.12Q165.76-22.56 164.94-23.44Q164.12-24.32 162.80-24.32L162.80-24.32Q161.48-24.32 160.68-23.44Q159.88-22.56 159.88-21.12L159.88-21.12L159.88-6.88Q159.88-5.44 160.68-4.56Q161.48-3.68 162.80-3.68L162.80-3.68Q164.12-3.68 164.94-4.56Q165.76-5.44 165.76-6.88L165.76-6.88L165.76-10.72Q165.76-10.92 165.56-10.92L165.56-10.92L163.12-10.92Q162.92-10.92 162.78-11.06Q162.64-11.20 162.64-11.40L162.64-11.40L162.64-14.32Q162.64-14.52 162.78-14.66Q162.92-14.80 163.12-14.80L163.12-14.80L169.92-14.80Q170.12-14.80 170.26-14.66Q170.40-14.52 170.40-14.32L170.40-14.32L170.40-6.92Q170.40-3.64 168.30-1.66Q166.20 0.32 162.80 0.32L162.80 0.32Z M175.76 0Q175.56 0 175.42-0.14Q175.28-0.28 175.28-0.48L175.28-0.48L175.28-27.52Q175.28-27.72 175.42-27.86Q175.56-28 175.76-28L175.76-28L179.60-28Q180.04-28 180.16-27.64L180.16-27.64L186.36-11.36Q186.44-11.24 186.52-11.24Q186.60-11.24 186.60-11.40L186.60-11.40L186.60-27.52Q186.60-27.72 186.74-27.86Q186.88-28 187.08-28L187.08-28L190.72-28Q190.92-28 191.06-27.86Q191.20-27.72 191.20-27.52L191.20-27.52L191.20-0.48Q191.20-0.28 191.06-0.14Q190.92 0 190.72 0L190.72 0L186.84 0Q186.40 0 186.28-0.36L186.28-0.36L180.04-16.68Q180.00-16.80 179.90-16.78Q179.80-16.76 179.80-16.64L179.80-16.64L179.84-0.48Q179.84-0.28 179.70-0.14Q179.56 0 179.36 0L179.36 0L175.76 0Z M203.52 0.32Q200.24 0.32 198.20-1.70Q196.16-3.72 196.16-6.92L196.16-6.92L196.16-8.04Q196.16-8.24 196.30-8.38Q196.44-8.52 196.64-8.52L196.64-8.52L200.24-8.52Q200.44-8.52 200.58-8.38Q200.72-8.24 200.72-8.04L200.72-8.04L200.72-7.16Q200.72-5.60 201.52-4.64Q202.32-3.68 203.52-3.68L203.52-3.68Q204.76-3.68 205.56-4.58Q206.36-5.48 206.36-6.96L206.36-6.96Q206.36-7.96 205.92-8.74Q205.48-9.52 204.70-10.20Q203.92-10.88 202.16-12.16L202.16-12.16Q200.16-13.60 198.94-14.72Q197.72-15.84 196.90-17.42Q196.08-19 196.08-21.08L196.08-21.08Q196.08-24.40 198.08-26.36Q200.08-28.32 203.32-28.32L203.32-28.32Q206.68-28.32 208.72-26.26Q210.76-24.20 210.76-20.80L210.76-20.80L210.76-19.84Q210.76-19.64 210.62-19.50Q210.48-19.36 210.28-19.36L210.28-19.36L206.64-19.36Q206.44-19.36 206.30-19.50Q206.16-19.64 206.16-19.84L206.16-19.84L206.16-20.88Q206.16-22.44 205.38-23.38Q204.60-24.32 203.32-24.32L203.32-24.32Q202.16-24.32 201.40-23.46Q200.64-22.60 200.64-21.08L200.64-21.08Q200.64-19.64 201.46-18.64Q202.28-17.64 204.68-15.88L204.68-15.88Q207.12-14.04 208.36-12.92Q209.60-11.80 210.28-10.44Q210.96-9.08 210.96-7.20L210.96-7.20Q210.96-3.80 208.90-1.74Q206.84 0.32 203.52 0.32L203.52 0.32Z"/></g>
</svg>
</g></svg></svg>